<?xml version="1.0" encoding="UTF-8"?>
<svg width="21px" height="13px" viewBox="0 0 21 13" version="1.1" xmlns="http://www.w3.org/2000/svg" xmlns:xlink="http://www.w3.org/1999/xlink">
    <!-- Generator: Sketch 51.2 (57519) - http://www.bohemiancoding.com/sketch -->
    <title>g+</title>
    <desc>Created with Sketch.</desc>
    <defs></defs>
    <g id="Page-1" stroke="none" stroke-width="1" fill="none" fill-rule="evenodd">
        <g id="g+" fill="#FFFFFF">
            <path d="M17.43,2.88 L17.43,5.05 L15.28,5.05 L15.28,6.5 L17.43,6.5 L17.43,8.66 L18.85,8.66 L18.85,6.5 L21,6.5 L21,5.05 L18.85,5.05 L18.85,2.88 L17.43,2.88 Z M7.43,4.32921927e-16 C4.79481101,-0.0283805997 2.40327604,1.53717267 1.37510675,3.96367105 C0.346937458,6.39016943 0.885638404,9.19733844 2.73899093,11.0708674 C4.59234346,12.9443964 7.39351529,13.5134596 9.83100365,12.5116228 C12.268492,11.509786 13.8598472,9.13534181 13.86,6.5 C13.8595549,6.0629287 13.8126243,5.6271443 13.72,5.2 L13.69,5.05 L7.43,5.05 L7.43,7.22 L11.71,7.22 C11.3472965,9.30188337 9.54323223,10.8235357 7.43,10.83 C5.03584561,10.83 3.095,8.88915439 3.095,6.495 C3.095,4.10084561 5.03584561,2.16 7.43,2.16 C8.46141445,2.15980474 9.45729339,2.53681605 10.23,3.22 L11.76,1.7 C10.5847395,0.604314825 9.03678295,-0.00342793859 7.43,-9.0906178e-13 Z" id="G_"></path>
        </g>
    </g>
</svg>
