<svg xmlns="http://www.w3.org/2000/svg" width="13" height="13" viewBox="0 0 13 13">
  <metadata><?xpacket begin="﻿" id="W5M0MpCehiHzreSzNTczkc9d"?>
<x:xmpmeta xmlns:x="adobe:ns:meta/" x:xmptk="Adobe XMP Core 5.6-c140 79.160451, 2017/05/06-01:08:21        ">
   <rdf:RDF xmlns:rdf="http://www.w3.org/1999/02/22-rdf-syntax-ns#">
      <rdf:Description rdf:about=""/>
   </rdf:RDF>
</x:xmpmeta>
                                                                                                    
                                                                                                    
                                                                                                    
                                                                                                    
                                                                                                    
                                                                                                    
                                                                                                    
                                                                                                    
                                                                                                    
                                                                                                    
                                                                                                    
                                                                                                    
                                                                                                    
                                                                                                    
                                                                                                    
                                                                                                    
                                                                                                    
                                                                                                    
                                                                                                    
                                                                                                    
                           
<?xpacket end="w"?></metadata>
<defs>
    <style>
      .cls-1 {
        fill: #fff;
        fill-rule: evenodd;
        opacity: 0.2;
      }
    </style>
  </defs>
  <path id="instagram" class="cls-1" d="M1234.5,4251.33a2.17,2.17,0,1,0,2.17,2.17A2.168,2.168,0,0,0,1234.5,4251.33Zm0-1.44a3.61,3.61,0,1,1-3.61,3.61A3.615,3.615,0,0,1,1234.5,4249.89Zm4.33-1.45a0.725,0.725,0,1,1-.72.73A0.734,0.734,0,0,1,1238.83,4248.44Zm-7.22-1.44a3.615,3.615,0,0,0-3.61,3.61v5.78a3.615,3.615,0,0,0,3.61,3.61h5.78a3.615,3.615,0,0,0,3.61-3.61v-5.78a3.615,3.615,0,0,0-3.61-3.61h-5.78Z" transform="translate(-1228 -4247)"/>
</svg>
