<?xml version="1.0" encoding="UTF-8"?><!DOCTYPE svg PUBLIC "-//W3C//DTD SVG 1.1//EN" "http://www.w3.org/Graphics/SVG/1.1/DTD/svg11.dtd"><svg xmlns="http://www.w3.org/2000/svg" xmlns:xlink="http://www.w3.org/1999/xlink"><defs>
    <style>
      .cls-1 {
        fill: #fff;
        fill-rule: evenodd;
        opacity: 0.2;
      }
    </style>
  
    <style>
      .cls-1 {
        fill: #fff;
        fill-rule: evenodd;
        opacity: 0.2;
      }
    </style>
  
    <style>
      .cls-1 {
        fill: #fff;
        fill-rule: evenodd;
        opacity: 0.2;
      }
    </style>
  
    <style>
      .cls-1 {
        fill: #fff;
        fill-rule: evenodd;
        opacity: 0.2;
      }
    </style>
  
    <style>
      .cls-1 {
        fill: #fff;
        fill-rule: evenodd;
        opacity: 0.2;
      }
    </style>
  </defs><symbol id="icon-dribbble" viewBox="0 0 13 13">
  <metadata><?xpacket begin="﻿" id="W5M0MpCehiHzreSzNTczkc9d"?>
<x:xmpmeta xmlns:x="adobe:ns:meta/" x:xmptk="Adobe XMP Core 5.6-c140 79.160451, 2017/05/06-01:08:21        ">
   <rdf:rdf xmlns:rdf="http://www.w3.org/1999/02/22-rdf-syntax-ns#">
      <rdf:description rdf:about=""/>
   </rdf:rdf>
</x:xmpmeta>
                                                                                                    
                                                                                                    
                                                                                                    
                                                                                                    
                                                                                                    
                                                                                                    
                                                                                                    
                                                                                                    
                                                                                                    
                                                                                                    
                                                                                                    
                                                                                                    
                                                                                                    
                                                                                                    
                                                                                                    
                                                                                                    
                                                                                                    
                                                                                                    
                                                                                                    
                                                                                                    
                           
<?xpacket end="w"?></metadata>

  <path id="Dribbble" class="cls-1" d="M1319.45,4254.45h0a7.551,7.551,0,0,1,1.4-.14,8.562,8.562,0,0,1,1.96.25,5.426,5.426,0,0,1-2.56,3.6A19.3,19.3,0,0,0,1319.45,4254.45Zm-5.14,3.46h0a7.982,7.982,0,0,1,4.09-3.2,17.658,17.658,0,0,1,.8,3.94,4.9,4.9,0,0,1-1.71.26A5.694,5.694,0,0,1,1314.31,4257.91Zm4.78-4.51h0c-0.13-.29-0.24-0.6-0.38-0.89a14.019,14.019,0,0,0,3.25-2.06,5.526,5.526,0,0,1,.96,3.04,8.46,8.46,0,0,0-2.07-.29A10,10,0,0,0,1319.09,4253.4Zm2.16-3.8h0a11.712,11.712,0,0,1-3,1.91,21.565,21.565,0,0,0-2.16-3.22,5.094,5.094,0,0,1,1.4-.2A5.466,5.466,0,0,1,1321.25,4249.6Zm-4,2.31h0a12.575,12.575,0,0,1-4.4.78h-0.74a5.581,5.581,0,0,1,2.89-4A17.83,17.83,0,0,1,1317.25,4251.91Zm0.24-4.91h0a6.5,6.5,0,1,0,6.52,6.49A6.483,6.483,0,0,0,1317.49,4247Zm0.56,6.69h0a8.744,8.744,0,0,0-4.54,3.47,5.083,5.083,0,0,1-1.42-3.4c0.27,0,.51.04,0.76,0.04a14.192,14.192,0,0,0,4.86-.89A4.852,4.852,0,0,0,1318.05,4253.69Z" transform="translate(-1311 -4247)"/>
</symbol><symbol id="icon-fb" viewBox="0 0 6 13">
  <metadata><?xpacket begin="﻿" id="W5M0MpCehiHzreSzNTczkc9d"?>
<x:xmpmeta xmlns:x="adobe:ns:meta/" x:xmptk="Adobe XMP Core 5.6-c140 79.160451, 2017/05/06-01:08:21        ">
   <rdf:rdf xmlns:rdf="http://www.w3.org/1999/02/22-rdf-syntax-ns#">
      <rdf:description rdf:about=""/>
   </rdf:rdf>
</x:xmpmeta>
                                                                                                    
                                                                                                    
                                                                                                    
                                                                                                    
                                                                                                    
                                                                                                    
                                                                                                    
                                                                                                    
                                                                                                    
                                                                                                    
                                                                                                    
                                                                                                    
                                                                                                    
                                                                                                    
                                                                                                    
                                                                                                    
                                                                                                    
                                                                                                    
                                                                                                    
                                                                                                    
                           
<?xpacket end="w"?></metadata>

  <path id="Facebook" class="cls-1" d="M1194.27,4260h-2.67v-6.5H1190v-2.16h1.6v-1.32c0-1.81.54-3.01,2.64-3.01h1.63v2.16h-0.98c-0.82,0-.87.4-0.87,0.97v1.2h1.97l-0.23,2.16h-1.49v6.5Z" transform="translate(-1190 -4247)"/>
</symbol><symbol id="icon-g+" viewBox="0 0 21 13">
    <!-- Generator: Sketch 51.2 (57519) - http://www.bohemiancoding.com/sketch -->
    <title>g+</title>
    <desc>Created with Sketch.</desc>
    
    <g id="Page-1" stroke-width="1" fill-rule="evenodd">
        <g id="g+">
            <path d="M17.43,2.88 L17.43,5.05 L15.28,5.05 L15.28,6.5 L17.43,6.5 L17.43,8.66 L18.85,8.66 L18.85,6.5 L21,6.5 L21,5.05 L18.85,5.05 L18.85,2.88 L17.43,2.88 Z M7.43,4.32921927e-16 C4.79481101,-0.0283805997 2.40327604,1.53717267 1.37510675,3.96367105 C0.346937458,6.39016943 0.885638404,9.19733844 2.73899093,11.0708674 C4.59234346,12.9443964 7.39351529,13.5134596 9.83100365,12.5116228 C12.268492,11.509786 13.8598472,9.13534181 13.86,6.5 C13.8595549,6.0629287 13.8126243,5.6271443 13.72,5.2 L13.69,5.05 L7.43,5.05 L7.43,7.22 L11.71,7.22 C11.3472965,9.30188337 9.54323223,10.8235357 7.43,10.83 C5.03584561,10.83 3.095,8.88915439 3.095,6.495 C3.095,4.10084561 5.03584561,2.16 7.43,2.16 C8.46141445,2.15980474 9.45729339,2.53681605 10.23,3.22 L11.76,1.7 C10.5847395,0.604314825 9.03678295,-0.00342793859 7.43,-9.0906178e-13 Z" id="G_"/>
        </g>
    </g>
</symbol><symbol id="icon-instagram" viewBox="0 0 13 13">
  <metadata><?xpacket begin="﻿" id="W5M0MpCehiHzreSzNTczkc9d"?>
<x:xmpmeta xmlns:x="adobe:ns:meta/" x:xmptk="Adobe XMP Core 5.6-c140 79.160451, 2017/05/06-01:08:21        ">
   <rdf:rdf xmlns:rdf="http://www.w3.org/1999/02/22-rdf-syntax-ns#">
      <rdf:description rdf:about=""/>
   </rdf:rdf>
</x:xmpmeta>
                                                                                                    
                                                                                                    
                                                                                                    
                                                                                                    
                                                                                                    
                                                                                                    
                                                                                                    
                                                                                                    
                                                                                                    
                                                                                                    
                                                                                                    
                                                                                                    
                                                                                                    
                                                                                                    
                                                                                                    
                                                                                                    
                                                                                                    
                                                                                                    
                                                                                                    
                                                                                                    
                           
<?xpacket end="w"?></metadata>

  <path id="instagram" class="cls-1" d="M1234.5,4251.33a2.17,2.17,0,1,0,2.17,2.17A2.168,2.168,0,0,0,1234.5,4251.33Zm0-1.44a3.61,3.61,0,1,1-3.61,3.61A3.615,3.615,0,0,1,1234.5,4249.89Zm4.33-1.45a0.725,0.725,0,1,1-.72.73A0.734,0.734,0,0,1,1238.83,4248.44Zm-7.22-1.44a3.615,3.615,0,0,0-3.61,3.61v5.78a3.615,3.615,0,0,0,3.61,3.61h5.78a3.615,3.615,0,0,0,3.61-3.61v-5.78a3.615,3.615,0,0,0-3.61-3.61h-5.78Z" transform="translate(-1228 -4247)"/>
</symbol><symbol id="icon-medium" viewBox="0 0 15 13">
  <metadata><?xpacket begin="﻿" id="W5M0MpCehiHzreSzNTczkc9d"?>
<x:xmpmeta xmlns:x="adobe:ns:meta/" x:xmptk="Adobe XMP Core 5.6-c140 79.160451, 2017/05/06-01:08:21        ">
   <rdf:rdf xmlns:rdf="http://www.w3.org/1999/02/22-rdf-syntax-ns#">
      <rdf:description rdf:about=""/>
   </rdf:rdf>
</x:xmpmeta>
                                                                                                    
                                                                                                    
                                                                                                    
                                                                                                    
                                                                                                    
                                                                                                    
                                                                                                    
                                                                                                    
                                                                                                    
                                                                                                    
                                                                                                    
                                                                                                    
                                                                                                    
                                                                                                    
                                                                                                    
                                                                                                    
                                                                                                    
                                                                                                    
                                                                                                    
                                                                                                    
                           
<?xpacket end="w"?></metadata>

  <path id="Medium" class="cls-1" d="M1366,4259.48a0.427,0.427,0,0,1-.44.48,0.891,0.891,0,0,1-.39-0.11l-0.65-.33-2.88-1.48,4.36-7.25v8.69Zm-9.29-3.96v-4.71l3.21,6.36-2.88-1.48Zm3.78-7.84,0.27-.43a0.48,0.48,0,0,1,.56-0.23,0.355,0.355,0,0,1,.09.04l4.53,2.31h0a0.01,0.01,0,0,1,.01.01,0.066,0.066,0,0,1,.02.07l-4.51,7.5-0.46.76-2.98-5.9Zm-4.49,11.8a0.442,0.442,0,0,1-.41.52,0.63,0.63,0,0,1-.28-0.08l-3.89-1.99a0.858,0.858,0,0,1-.42-0.69v-9.76a0.352,0.352,0,0,1,.33-0.41,0.417,0.417,0,0,1,.23.06l0.13,0.07h0l4.29,2.19a0.038,0.038,0,0,1,.02.02v10.07Z" transform="translate(-1351 -4247)"/>
</symbol><symbol id="icon-twitter" viewBox="0 0 15 12">
  <metadata><?xpacket begin="﻿" id="W5M0MpCehiHzreSzNTczkc9d"?>
<x:xmpmeta xmlns:x="adobe:ns:meta/" x:xmptk="Adobe XMP Core 5.6-c140 79.160451, 2017/05/06-01:08:21        ">
   <rdf:rdf xmlns:rdf="http://www.w3.org/1999/02/22-rdf-syntax-ns#">
      <rdf:description rdf:about=""/>
   </rdf:rdf>
</x:xmpmeta>
                                                                                                    
                                                                                                    
                                                                                                    
                                                                                                    
                                                                                                    
                                                                                                    
                                                                                                    
                                                                                                    
                                                                                                    
                                                                                                    
                                                                                                    
                                                                                                    
                                                                                                    
                                                                                                    
                                                                                                    
                                                                                                    
                                                                                                    
                                                                                                    
                                                                                                    
                                                                                                    
                           
<?xpacket end="w"?></metadata>

  <path id="twitter" class="cls-1" d="M1283,4249.42a6.425,6.425,0,0,1-1.77.48,3.058,3.058,0,0,0,1.36-1.68,6.337,6.337,0,0,1-1.96.73,3.092,3.092,0,0,0-2.25-.96,3.06,3.06,0,0,0-3.08,3.04,3.174,3.174,0,0,0,.08.69,8.8,8.8,0,0,1-6.34-3.17,2.952,2.952,0,0,0-.42,1.53,3.014,3.014,0,0,0,1.37,2.52,3.2,3.2,0,0,1-1.39-.38v0.04a3.05,3.05,0,0,0,2.47,2.97,3.124,3.124,0,0,1-.82.1,2.63,2.63,0,0,1-.57-0.05,3.081,3.081,0,0,0,2.87,2.11,6.238,6.238,0,0,1-3.82,1.29,6.008,6.008,0,0,1-.74-0.04,8.8,8.8,0,0,0,4.72,1.36,8.624,8.624,0,0,0,8.76-8.62c0-.13,0-0.27-0.01-0.4a5.859,5.859,0,0,0,1.54-1.56" transform="translate(-1268 -4248)"/>
</symbol></svg>